<svg width="15" height="15" viewBox="0 0 15 15" fill="none" xmlns="http://www.w3.org/2000/svg">
    <path d="M12.021 6.76758L12.352 6.43652L11.3589 5.44336L9.53952 3.62402L8.54636 2.63086L8.2153 2.96191L7.55319 3.62402L1.71726 9.45996C1.41257 9.76465 1.18991 10.1426 1.06686 10.5557L0.0297554 14.083C-0.0434868 14.3291 0.023896 14.5957 0.208466 14.7773C0.393037 14.959 0.656708 15.0264 0.902802 14.9561L4.42722 13.9189C4.8403 13.7959 5.21823 13.5732 5.52292 13.2686L11.3589 7.43262L12.021 6.76758ZM4.68796 11.7012L4.42136 12.3662C4.30417 12.457 4.17233 12.5244 4.03171 12.5684L1.74069 13.2422L2.41452 10.9541C2.45554 10.8105 2.52585 10.6787 2.61667 10.5645L3.28171 10.2979V11.2354C3.28171 11.4932 3.49265 11.7041 3.75046 11.7041H4.68796V11.7012ZM10.6264 0.547852L10.2046 0.972656L9.54245 1.63477L9.20847 1.96582L10.2016 2.95898L12.021 4.77832L13.0141 5.77148L13.3452 5.44043L14.0073 4.77832L14.4321 4.35352C15.1645 3.62109 15.1645 2.43457 14.4321 1.70215L13.2807 0.547852C12.5483 -0.18457 11.3618 -0.18457 10.6294 0.547852H10.6264ZM9.23776 5.46973L5.01901 9.68848C4.83737 9.87012 4.53854 9.87012 4.3569 9.68848C4.17526 9.50684 4.17526 9.20801 4.3569 9.02637L8.57565 4.80762C8.75729 4.62598 9.05612 4.62598 9.23776 4.80762C9.4194 4.98926 9.4194 5.28809 9.23776 5.46973Z"
          fill="black"/>
</svg>
